<svg version="1.1" viewBox="0.0 0.0 282.0 175.0" fill="none" stroke="none" stroke-linecap="square" stroke-miterlimit="10" width="282" height="175" xmlns:xlink="http://www.w3.org/1999/xlink" xmlns="http://www.w3.org/2000/svg"><path fill="#ffffff" fill-opacity="0.0" d="M0 0L282.0 0L282.0 175.0L0 175.0L0 0Z" fill-rule="nonzero"/><path fill="#856d48" d="M136.05525 8.9053955C137.70146 8.801824 139.35052 8.75 141.0 8.75L141.0 48.125C140.17526 48.125 139.35074 48.150913 138.52762 48.202698Z" fill-rule="nonzero"/><path fill="#645236" d="M141.0 8.75C184.01013 8.75 219.06471 43.25823 219.74028 86.26305C220.41586 129.26787 186.4625 164.86017 143.4736 166.21114C100.484695 167.56212 64.36348 134.17201 62.33742 91.20963C60.311367 48.247253 93.12999 11.606024 136.05525 8.9053955L138.52762 48.202698C117.064995 49.553013 100.655685 67.87363 101.66871 89.35482C102.68174 110.836006 120.74235 127.53106 142.2368 126.85557C163.73125 126.180084 180.70793 108.383934 180.37015 86.88152C180.03235 65.37911 162.50507 48.125 141.0 48.125Z" fill-rule="nonzero"/><path fill="#1a1a1a" d="M236.17188 140.28125L236.17188 139.92188L237.57812 139.92188Q238.01562 139.92188 238.1875 140.09375Q238.375 140.26562 238.375 140.53125Q238.375 140.79688 238.1875 140.96875Q238.01562 141.125 237.57812 141.125L237.375 141.125L237.375 145.5Q237.375 146.14062 237.10938 146.60938Q236.84375 147.07812 236.28125 147.42188Q235.73438 147.76562 235.04688 147.76562L233.6875 147.76562Q233.25 147.76562 233.0625 147.59375Q232.89062 147.42188 232.89062 147.15625Q232.89062 146.89062 233.0625 146.71875Q233.25 146.5625 233.6875 146.5625L235.01562 146.5625Q235.5625 146.5625 235.85938 146.25Q236.17188 145.95312 236.17188 145.5L236.17188 144.92188Q235.78125 145.17188 235.35938 145.29688Q234.95312 145.4375 234.51562 145.4375Q233.29688 145.4375 232.46875 144.625Q231.64062 143.79688 231.64062 142.59375Q231.64062 141.39062 232.46875 140.57812Q233.29688 139.75 234.51562 139.75Q234.96875 139.75 235.375 139.89062Q235.79688 140.01562 236.17188 140.28125ZM236.17188 142.59375Q236.17188 141.92188 235.67188 141.4375Q235.1875 140.95312 234.5 140.95312Q233.8125 140.95312 233.32812 141.4375Q232.84375 141.92188 232.84375 142.59375Q232.84375 143.25 233.32812 143.73438Q233.8125 144.21875 234.5 144.21875Q235.1875 144.21875 235.67188 143.73438Q236.17188 143.25 236.17188 142.59375ZM242.9375 145.25L242.9375 144.96875Q242.48438 145.20312 241.9375 145.32812Q241.39062 145.45312 240.95312 145.45312Q239.98438 145.45312 239.375 144.9375Q238.76562 144.42188 238.76562 143.79688Q238.76562 143.04688 239.53125 142.40625Q240.3125 141.75 241.67188 141.75Q242.21875 141.75 242.9375 141.875L242.9375 141.57812Q242.9375 141.3125 242.70312 141.14062Q242.46875 140.96875 241.8125 140.96875Q241.28125 140.96875 240.4375 141.1875Q240.125 141.26562 239.9375 141.26562Q239.70312 141.26562 239.53125 141.09375Q239.375 140.90625 239.375 140.64062Q239.375 140.48438 239.42188 140.375Q239.48438 140.26562 239.59375 140.20312Q239.70312 140.14062 240.03125 140.04688Q240.48438 139.92188 240.9375 139.84375Q241.40625 139.76562 241.78125 139.76562Q242.89062 139.76562 243.51562 140.25Q244.14062 140.73438 244.14062 141.57812L244.14062 144.04688L244.34375 144.04688Q244.76562 144.04688 244.95312 144.21875Q245.14062 144.375 245.14062 144.65625Q245.14062 144.92188 244.95312 145.09375Q244.76562 145.25 244.34375 145.25L242.9375 145.25ZM242.9375 143.09375Q242.21875 142.95312 241.60938 142.95312Q240.875 142.95312 240.34375 143.3125Q240.01562 143.54688 240.01562 143.78125Q240.01562 143.95312 240.17188 144.04688Q240.46875 144.25 240.96875 144.25Q241.40625 144.25 241.95312 144.07812Q242.5 143.90625 242.9375 143.60938L242.9375 143.09375ZM248.1875 145.20312L246.09375 141.125Q245.8125 141.09375 245.65625 140.9375Q245.5 140.76562 245.5 140.53125Q245.5 140.26562 245.6875 140.09375Q245.875 139.92188 246.3125 139.92188L247.40625 139.92188Q247.82812 139.92188 248.01562 140.09375Q248.20312 140.26562 248.20312 140.53125Q248.20312 140.79688 248.01562 140.96875Q247.82812 141.125 247.4375 141.125L248.85938 143.89062L250.26562 141.125Q249.875 141.125 249.6875 140.96875Q249.5 140.79688 249.5 140.53125Q249.5 140.26562 249.6875 140.09375Q249.875 139.92188 250.3125 139.92188L251.4375 139.92188Q251.85938 139.92188 252.04688 140.09375Q252.23438 140.26562 252.23438 140.53125Q252.23438 140.76562 252.07812 140.9375Q251.92188 141.10938 251.60938 141.125L248.85938 146.5625Q249.3125 146.5625 249.45312 146.64062Q249.73438 146.82812 249.73438 147.15625Q249.73438 147.42188 249.54688 147.59375Q249.35938 147.76562 248.92188 147.76562L246.3125 147.76562Q245.875 147.76562 245.6875 147.59375Q245.5 147.42188 245.5 147.15625Q245.5 146.89062 245.6875 146.71875Q245.875 146.5625 246.3125 146.5625L247.5 146.5625L248.1875 145.20312ZM254.0 139.92188L254.0 140.26562Q254.29688 139.98438 254.53125 139.875Q254.76562 139.76562 255.07812 139.76562Q255.34375 139.76562 255.59375 139.89062Q255.85938 140.01562 256.09375 140.28125Q256.40625 140.01562 256.71875 139.89062Q257.04688 139.76562 257.39062 139.76562Q258.04688 139.76562 258.46875 140.125Q259.01562 140.59375 259.01562 141.35938L259.01562 144.04688Q259.39062 144.04688 259.5625 144.21875Q259.75 144.39062 259.75 144.65625Q259.75 144.92188 259.5625 145.09375Q259.39062 145.25 258.95312 145.25L257.8125 145.25L257.8125 141.45312Q257.8125 141.1875 257.71875 141.07812Q257.625 140.96875 257.40625 140.96875Q257.21875 140.96875 257.04688 141.07812Q256.82812 141.21875 256.51562 141.625L256.51562 144.04688Q256.89062 144.04688 257.0625 144.21875Q257.25 144.39062 257.25 144.65625Q257.25 144.92188 257.0625 145.09375Q256.89062 145.25 256.45312 145.25L255.3125 145.25L255.3125 141.45312Q255.3125 141.1875 255.20312 141.07812Q255.10938 140.96875 254.90625 140.96875Q254.6875 140.96875 254.48438 141.10938Q254.28125 141.23438 254.0 141.625L254.0 144.04688Q254.375 144.04688 254.54688 144.21875Q254.73438 144.39062 254.73438 144.65625Q254.73438 144.92188 254.54688 145.09375Q254.375 145.25 253.9375 145.25L252.85938 145.25Q252.42188 145.25 252.23438 145.09375Q252.04688 144.92188 252.04688 144.64062Q252.04688 144.375 252.23438 144.21875Q252.42188 144.04688 252.79688 144.04688L252.79688 141.125Q252.42188 141.125 252.23438 140.96875Q252.04688 140.79688 252.04688 140.53125Q252.04688 140.26562 252.23438 140.09375Q252.42188 139.92188 252.85938 139.92188L254.0 139.92188ZM265.85938 143.20312L260.9375 143.20312Q261.125 143.67188 261.59375 143.95312Q262.07812 144.23438 262.89062 144.23438Q263.5625 144.23438 264.67188 143.95312Q265.125 143.84375 265.29688 143.84375Q265.54688 143.84375 265.70312 144.01562Q265.875 144.17188 265.875 144.4375Q265.875 144.67188 265.70312 144.82812Q265.46875 145.04688 264.54688 145.25Q263.64062 145.4375 262.8125 145.4375Q261.35938 145.4375 260.5 144.625Q259.64062 143.8125 259.64062 142.625Q259.64062 141.35938 260.5625 140.5625Q261.5 139.76562 262.71875 139.76562Q263.45312 139.76562 264.0625 140.03125Q264.6875 140.28125 264.98438 140.57812Q265.40625 141.01562 265.67188 141.65625Q265.85938 142.10938 265.85938 142.6875L265.85938 143.20312ZM264.53125 142.0Q264.26562 141.48438 263.8125 141.23438Q263.375 140.96875 262.75 140.96875Q262.14062 140.96875 261.6875 141.23438Q261.25 141.48438 260.96875 142.0L264.53125 142.0ZM269.60938 139.92188L269.60938 140.67188Q270.35938 140.14062 270.79688 139.95312Q271.23438 139.76562 271.60938 139.76562Q272.20312 139.76562 272.75 140.20312Q273.125 140.5 273.125 140.79688Q273.125 141.0625 272.9375 141.25Q272.76562 141.42188 272.51562 141.42188Q272.29688 141.42188 272.04688 141.20312Q271.79688 140.96875 271.60938 140.96875Q271.35938 140.96875 270.85938 141.29688Q270.35938 141.60938 269.60938 142.23438L269.60938 144.04688L271.3125 144.04688Q271.75 144.04688 271.92188 144.21875Q272.10938 144.375 272.10938 144.65625Q272.10938 144.92188 271.92188 145.09375Q271.75 145.25 271.3125 145.25L267.6875 145.25Q267.25 145.25 267.0625 145.09375Q266.89062 144.92188 266.89062 144.64062Q266.89062 144.375 267.0625 144.21875Q267.25 144.04688 267.6875 144.04688L268.40625 144.04688L268.40625 141.125L267.96875 141.125Q267.53125 141.125 267.34375 140.96875Q267.17188 140.79688 267.17188 140.53125Q267.17188 140.26562 267.34375 140.09375Q267.53125 139.92188 267.96875 139.92188L269.60938 139.92188Z" fill-rule="nonzero"/><path fill="#9e9e9e" d="M243.54688 159.09375Q243.09375 159.48438 242.71875 159.65625Q242.34375 159.8125 241.92188 159.8125Q240.95312 159.8125 240.23438 159.04688Q239.51562 158.26562 239.51562 157.10938Q239.51562 156.21875 240.01562 155.48438Q240.6875 154.46875 241.92188 154.46875Q242.8125 154.46875 243.46875 155.0Q244.14062 155.53125 244.4375 156.53125Q244.75 157.53125 244.75 158.60938Q244.75 160.45312 243.32812 161.5625Q242.23438 162.42188 240.92188 162.42188Q240.1875 162.42188 239.79688 162.125Q239.51562 161.9375 239.51562 161.625Q239.51562 161.35938 239.6875 161.1875Q239.875 161.01562 240.125 161.01562Q240.26562 161.01562 240.4375 161.10938Q240.67188 161.21875 240.92188 161.21875Q241.82812 161.21875 242.59375 160.60938Q243.35938 159.98438 243.54688 159.09375ZM243.375 157.20312Q243.17188 156.375 242.79688 156.03125Q242.42188 155.67188 241.9375 155.67188Q241.42188 155.67188 241.0625 156.0625Q240.71875 156.45312 240.71875 157.09375Q240.71875 157.76562 241.07812 158.1875Q241.4375 158.60938 241.89062 158.60938Q242.70312 158.60938 243.375 157.20312ZM250.54688 159.09375Q250.09375 159.48438 249.71875 159.65625Q249.34375 159.8125 248.92188 159.8125Q247.95312 159.8125 247.23438 159.04688Q246.51562 158.26562 246.51562 157.10938Q246.51562 156.21875 247.01562 155.48438Q247.6875 154.46875 248.92188 154.46875Q249.8125 154.46875 250.46875 155.0Q251.14062 155.53125 251.4375 156.53125Q251.75 157.53125 251.75 158.60938Q251.75 160.45312 250.32812 161.5625Q249.23438 162.42188 247.92188 162.42188Q247.1875 162.42188 246.79688 162.125Q246.51562 161.9375 246.51562 161.625Q246.51562 161.35938 246.6875 161.1875Q246.875 161.01562 247.125 161.01562Q247.26562 161.01562 247.4375 161.10938Q247.67188 161.21875 247.92188 161.21875Q248.82812 161.21875 249.59375 160.60938Q250.35938 159.98438 250.54688 159.09375ZM250.375 157.20312Q250.17188 156.375 249.79688 156.03125Q249.42188 155.67188 248.9375 155.67188Q248.42188 155.67188 248.0625 156.0625Q247.71875 156.45312 247.71875 157.09375Q247.71875 157.76562 248.07812 158.1875Q248.4375 158.60938 248.89062 158.60938Q249.70312 158.60938 250.375 157.20312ZM256.76562 161.64062Q256.76562 161.98438 256.51562 162.21875Q256.28125 162.4375 255.85938 162.4375Q255.4375 162.4375 255.20312 162.21875Q254.96875 161.98438 254.96875 161.64062Q254.96875 161.3125 255.20312 161.07812Q255.4375 160.84375 255.85938 160.84375Q256.28125 160.84375 256.51562 161.07812Q256.76562 161.3125 256.76562 161.64062ZM265.46875 157.79688L265.46875 159.10938Q265.46875 160.28125 264.79688 161.35938Q264.125 162.42188 262.85938 162.42188Q262.14062 162.42188 261.625 162.10938Q261.125 161.78125 260.67188 160.92188Q260.23438 160.0625 260.23438 159.10938L260.23438 157.79688Q260.23438 156.625 260.90625 155.54688Q261.57812 154.46875 262.84375 154.46875Q263.5625 154.46875 264.0625 154.79688Q264.5625 155.10938 265.01562 155.96875Q265.46875 156.82812 265.46875 157.79688ZM264.26562 157.79688Q264.26562 156.8125 263.71875 156.07812Q263.40625 155.67188 262.84375 155.67188Q262.29688 155.67188 261.95312 156.125Q261.4375 156.79688 261.4375 157.79688L261.4375 159.10938Q261.4375 160.09375 261.98438 160.8125Q262.29688 161.21875 262.85938 161.21875Q263.40625 161.21875 263.75 160.78125Q264.26562 160.10938 264.26562 159.10938L264.26562 157.79688ZM270.78125 156.42188Q270.78125 157.125 270.28125 157.625Q269.78125 158.10938 269.07812 158.10938Q268.375 158.10938 267.875 157.625Q267.375 157.125 267.375 156.42188Q267.375 155.71875 267.875 155.21875Q268.375 154.71875 269.07812 154.71875Q269.78125 154.71875 270.28125 155.21875Q270.78125 155.70312 270.78125 156.42188ZM270.03125 156.42188Q270.03125 156.01562 269.75 155.75Q269.46875 155.46875 269.07812 155.46875Q268.6875 155.46875 268.40625 155.75Q268.125 156.01562 268.125 156.42188Q268.125 156.8125 268.40625 157.09375Q268.6875 157.375 269.07812 157.375Q269.46875 157.375 269.75 157.09375Q270.03125 156.8125 270.03125 156.42188ZM272.1875 158.20312L267.76562 159.64062Q267.59375 159.6875 267.51562 159.6875Q267.39062 159.6875 267.28125 159.57812Q267.17188 159.46875 267.17188 159.29688Q267.17188 159.17188 267.26562 159.07812Q267.3125 159.0 267.53125 158.9375L271.96875 157.5Q272.125 157.4375 272.20312 157.4375Q272.34375 157.4375 272.4375 157.5625Q272.54688 157.67188 272.54688 157.82812Q272.54688 157.95312 272.46875 158.0625Q272.40625 158.14062 272.1875 158.20312ZM272.29688 160.73438Q272.29688 161.4375 271.79688 161.9375Q271.29688 162.42188 270.59375 162.42188Q269.89062 162.42188 269.39062 161.92188Q268.90625 161.42188 268.90625 160.73438Q268.90625 160.03125 269.39062 159.53125Q269.89062 159.03125 270.59375 159.03125Q271.29688 159.03125 271.79688 159.53125Q272.29688 160.01562 272.29688 160.73438ZM271.54688 160.73438Q271.54688 160.32812 271.26562 160.0625Q270.98438 159.78125 270.59375 159.78125Q270.20312 159.78125 269.92188 160.0625Q269.64062 160.32812 269.64062 160.73438Q269.64062 161.125 269.92188 161.40625Q270.20312 161.6875 270.59375 161.6875Q270.98438 161.6875 271.26562 161.40625Q271.54688 161.125 271.54688 160.73438Z" fill-rule="nonzero"/><path stroke="#757575" stroke-width="1.0" stroke-linecap="butt" d="M273.25 150.75L225.75 150.75L143.34991 162.27559" fill-rule="nonzero"/><path fill="#9e9e9e" d="M145.34991 162.27559C145.34991 161.17102 144.45448 160.27559 143.34991 160.27559C142.24535 160.27559 141.34991 161.17102 141.34991 162.27559C141.34991 163.38016 142.24535 164.27559 143.34991 164.27559C144.45448 164.27559 145.34991 163.38016 145.34991 162.27559" fill-rule="nonzero"/></svg>