<svg version="1.1" viewBox="0.0 0.0 282.0 175.0" fill="none" stroke="none" stroke-linecap="square" stroke-miterlimit="10" width="282" height="175" xmlns:xlink="http://www.w3.org/1999/xlink" xmlns="http://www.w3.org/2000/svg"><path fill="#ffffff" fill-opacity="0.0" d="M0 0L282.0 0L282.0 175.0L0 175.0L0 0Z" fill-rule="nonzero"/><path fill="#645236" d="M141.0 8.75C184.49243 8.75 219.75 44.007576 219.75 87.5C219.75 130.99243 184.49243 166.25 141.0 166.25L141.0 126.875C162.74622 126.875 180.375 109.246216 180.375 87.5C180.375 65.753784 162.74622 48.125 141.0 48.125Z" fill-rule="nonzero"/><path fill="#856d48" d="M141.0 166.25C97.507576 166.25 62.25 130.99243 62.25 87.5C62.25 44.007576 97.507576 8.75 141.0 8.75L141.0 48.125C119.253784 48.125 101.625 65.753784 101.625 87.5C101.625 109.246216 119.253784 126.875 141.0 126.875Z" fill-rule="nonzero"/><path fill="#1a1a1a" d="M236.15625 78.078125Q235.85938 77.90625 235.53125 77.8125Q235.21875 77.71875 234.85938 77.71875Q234.15625 77.71875 233.75 77.953125Q233.57812 78.046875 233.57812 78.171875Q233.57812 78.296875 233.8125 78.4375Q234.0 78.53125 234.65625 78.609375Q235.84375 78.78125 236.3125 78.9375Q236.9375 79.15625 237.26562 79.59375Q237.60938 80.015625 237.60938 80.484375Q237.60938 81.125 237.03125 81.5625Q236.21875 82.1875 234.92188 82.1875Q234.39062 82.1875 233.95312 82.09375Q233.51562 82.015625 233.14062 81.828125Q233.0625 81.90625 232.95312 81.953125Q232.85938 82.0 232.75 82.0Q232.46875 82.0 232.29688 81.8125Q232.14062 81.625 232.14062 81.1875L232.14062 80.78125Q232.14062 80.359375 232.29688 80.171875Q232.46875 79.984375 232.73438 79.984375Q232.95312 79.984375 233.09375 80.109375Q233.25 80.21875 233.32812 80.515625Q233.60938 80.75 233.98438 80.875Q234.375 80.984375 234.89062 80.984375Q235.70312 80.984375 236.17188 80.734375Q236.39062 80.609375 236.39062 80.46875Q236.39062 80.234375 236.07812 80.078125Q235.76562 79.921875 234.79688 79.8125Q233.34375 79.671875 232.85938 79.234375Q232.375 78.8125 232.375 78.171875Q232.375 77.53125 232.92188 77.109375Q233.65625 76.515625 234.84375 76.515625Q235.26562 76.515625 235.64062 76.59375Q236.03125 76.671875 236.39062 76.84375Q236.5 76.765625 236.59375 76.71875Q236.6875 76.671875 236.76562 76.671875Q237.01562 76.671875 237.17188 76.859375Q237.34375 77.046875 237.34375 77.484375L237.34375 77.78125Q237.34375 78.171875 237.25 78.3125Q237.0625 78.578125 236.73438 78.578125Q236.53125 78.578125 236.35938 78.453125Q236.20312 78.3125 236.15625 78.078125ZM241.5625 77.875L241.5625 80.28125Q241.5625 80.671875 241.71875 80.796875Q241.95312 80.984375 242.59375 80.984375Q243.51562 80.984375 244.29688 80.59375Q244.59375 80.453125 244.76562 80.453125Q245.0 80.453125 245.17188 80.625Q245.34375 80.796875 245.34375 81.046875Q245.34375 81.28125 245.15625 81.453125Q244.85938 81.734375 244.01562 81.96875Q243.17188 82.1875 242.59375 82.1875Q241.46875 82.1875 240.90625 81.703125Q240.35938 81.21875 240.35938 80.515625L240.35938 77.875L239.92188 77.875Q239.48438 77.875 239.29688 77.71875Q239.125 77.546875 239.125 77.28125Q239.125 77.015625 239.29688 76.84375Q239.48438 76.671875 239.92188 76.671875L240.35938 76.671875L240.35938 75.59375Q240.35938 75.15625 240.51562 74.984375Q240.6875 74.796875 240.95312 74.796875Q241.21875 74.796875 241.39062 74.984375Q241.5625 75.15625 241.5625 75.59375L241.5625 76.671875L243.78125 76.671875Q244.20312 76.671875 244.39062 76.84375Q244.57812 77.015625 244.57812 77.28125Q244.57812 77.546875 244.39062 77.71875Q244.20312 77.875 243.78125 77.875L241.5625 77.875ZM251.40625 76.671875L251.40625 80.796875Q251.78125 80.796875 251.95312 80.96875Q252.14062 81.140625 252.14062 81.40625Q252.14062 81.671875 251.95312 81.84375Q251.78125 82.0 251.34375 82.0L250.20312 82.0L250.20312 81.71875Q249.6875 81.953125 249.21875 82.0625Q248.75 82.1875 248.32812 82.1875Q247.73438 82.1875 247.29688 81.9375Q246.875 81.6875 246.60938 81.25Q246.4375 80.9375 246.4375 80.46875L246.4375 77.875L246.23438 77.875Q245.79688 77.875 245.60938 77.71875Q245.42188 77.546875 245.42188 77.28125Q245.42188 77.015625 245.60938 76.84375Q245.79688 76.671875 246.23438 76.671875L247.64062 76.671875L247.64062 80.25Q247.64062 80.640625 247.8125 80.8125Q248.0 80.984375 248.39062 80.984375Q248.75 80.984375 249.17188 80.84375Q249.59375 80.703125 250.20312 80.328125L250.20312 77.875L249.76562 77.875Q249.32812 77.875 249.14062 77.71875Q248.96875 77.546875 248.96875 77.28125Q248.96875 77.015625 249.14062 76.84375Q249.32812 76.671875 249.76562 76.671875L251.40625 76.671875ZM254.35938 81.34375L254.35938 83.3125L255.07812 83.3125Q255.51562 83.3125 255.70312 83.46875Q255.89062 83.640625 255.89062 83.90625Q255.89062 84.171875 255.70312 84.34375Q255.51562 84.515625 255.07812 84.515625L252.95312 84.515625Q252.51562 84.515625 252.32812 84.34375Q252.15625 84.171875 252.15625 83.90625Q252.15625 83.640625 252.34375 83.46875Q252.53125 83.3125 252.95312 83.3125L253.15625 83.3125L253.15625 77.875L252.95312 77.875Q252.51562 77.875 252.32812 77.71875Q252.15625 77.546875 252.15625 77.28125Q252.15625 77.015625 252.32812 76.84375Q252.51562 76.671875 252.95312 76.671875L254.35938 76.671875L254.35938 77.09375Q254.78125 76.796875 255.23438 76.65625Q255.6875 76.515625 256.15625 76.515625Q257.39062 76.515625 258.25 77.359375Q259.125 78.1875 259.125 79.265625Q259.125 80.453125 258.09375 81.234375Q257.25 81.875 256.17188 81.875Q255.70312 81.875 255.25 81.75Q254.8125 81.609375 254.35938 81.34375ZM257.92188 79.28125Q257.92188 79.015625 257.71875 78.640625Q257.53125 78.25 257.10938 77.984375Q256.70312 77.71875 256.14062 77.71875Q255.25 77.71875 254.71875 78.390625Q254.35938 78.859375 254.35938 79.28125Q254.35938 79.765625 254.875 80.21875Q255.39062 80.671875 256.14062 80.671875Q256.90625 80.671875 257.40625 80.21875Q257.92188 79.765625 257.92188 79.28125ZM263.28125 74.40625L263.28125 75.671875L261.85938 75.671875L261.85938 74.40625L263.28125 74.40625ZM263.45312 76.671875L263.45312 80.796875L264.89062 80.796875Q265.32812 80.796875 265.5 80.96875Q265.6875 81.125 265.6875 81.40625Q265.6875 81.671875 265.5 81.84375Q265.32812 82.0 264.89062 82.0L260.79688 82.0Q260.375 82.0 260.1875 81.84375Q260.0 81.671875 260.0 81.390625Q260.0 81.125 260.1875 80.96875Q260.375 80.796875 260.79688 80.796875L262.25 80.796875L262.25 77.875L261.28125 77.875Q260.84375 77.875 260.65625 77.71875Q260.46875 77.546875 260.46875 77.28125Q260.46875 77.015625 260.65625 76.84375Q260.84375 76.671875 261.28125 76.671875L263.45312 76.671875ZM272.60938 74.40625L272.60938 80.796875L272.8125 80.796875Q273.23438 80.796875 273.42188 80.96875Q273.60938 81.125 273.60938 81.40625Q273.60938 81.671875 273.42188 81.84375Q273.25 82.0 272.8125 82.0L271.40625 82.0L271.40625 81.703125Q271.0 81.953125 270.54688 82.0625Q270.09375 82.1875 269.625 82.1875Q268.26562 82.1875 267.4375 81.40625Q266.60938 80.625 266.60938 79.46875Q266.60938 78.25 267.46875 77.390625Q268.34375 76.515625 269.59375 76.515625Q270.0625 76.515625 270.51562 76.671875Q270.96875 76.8125 271.40625 77.09375L271.40625 75.59375L271.20312 75.59375Q270.76562 75.59375 270.57812 75.4375Q270.40625 75.265625 270.40625 75.0Q270.40625 74.734375 270.57812 74.578125Q270.76562 74.40625 271.20312 74.40625L272.60938 74.40625ZM271.40625 79.5Q271.40625 78.75 270.875 78.234375Q270.35938 77.71875 269.60938 77.71875Q268.85938 77.71875 268.32812 78.234375Q267.8125 78.75 267.8125 79.484375Q267.8125 80.140625 268.28125 80.5625Q268.75 80.984375 269.60938 80.984375Q270.45312 80.984375 270.92188 80.5625Q271.40625 80.140625 271.40625 79.5Z" fill-rule="nonzero"/><path fill="#9e9e9e" d="M240.84375 92.625L240.84375 94.046875Q241.51562 93.84375 242.04688 93.84375Q243.15625 93.84375 243.89062 94.59375Q244.625 95.34375 244.625 96.546875Q244.625 97.78125 243.875 98.484375Q243.14062 99.171875 241.60938 99.171875Q240.26562 99.171875 239.48438 98.671875Q239.03125 98.375 239.03125 97.984375Q239.03125 97.75 239.20312 97.578125Q239.375 97.390625 239.625 97.390625Q239.82812 97.390625 240.0625 97.59375Q240.3125 97.78125 240.57812 97.859375Q240.95312 97.96875 241.53125 97.96875Q242.625 97.96875 243.01562 97.625Q243.42188 97.28125 243.42188 96.5625Q243.42188 95.84375 243.03125 95.4375Q242.65625 95.03125 242.04688 95.03125Q241.40625 95.03125 240.57812 95.453125Q240.39062 95.5625 240.25 95.5625Q239.98438 95.5625 239.8125 95.375Q239.64062 95.1875 239.64062 94.890625L239.64062 91.421875L243.3125 91.421875Q243.75 91.421875 243.92188 91.59375Q244.10938 91.75 244.10938 92.015625Q244.10938 92.28125 243.92188 92.453125Q243.75 92.625 243.3125 92.625L240.84375 92.625ZM251.46875 94.546875L251.46875 95.859375Q251.46875 97.03125 250.79688 98.109375Q250.125 99.171875 248.85938 99.171875Q248.14062 99.171875 247.625 98.859375Q247.125 98.53125 246.67188 97.671875Q246.23438 96.8125 246.23438 95.859375L246.23438 94.546875Q246.23438 93.375 246.90625 92.296875Q247.57812 91.21875 248.84375 91.21875Q249.5625 91.21875 250.0625 91.546875Q250.5625 91.859375 251.01562 92.71875Q251.46875 93.578125 251.46875 94.546875ZM250.26562 94.546875Q250.26562 93.5625 249.71875 92.828125Q249.40625 92.421875 248.84375 92.421875Q248.29688 92.421875 247.95312 92.875Q247.4375 93.546875 247.4375 94.546875L247.4375 95.859375Q247.4375 96.84375 247.98438 97.5625Q248.29688 97.96875 248.85938 97.96875Q249.40625 97.96875 249.75 97.53125Q250.26562 96.859375 250.26562 95.859375L250.26562 94.546875ZM256.76562 98.390625Q256.76562 98.734375 256.51562 98.96875Q256.28125 99.1875 255.85938 99.1875Q255.4375 99.1875 255.20312 98.96875Q254.96875 98.734375 254.96875 98.390625Q254.96875 98.0625 255.20312 97.828125Q255.4375 97.59375 255.85938 97.59375Q256.28125 97.59375 256.51562 97.828125Q256.76562 98.0625 256.76562 98.390625ZM265.46875 94.546875L265.46875 95.859375Q265.46875 97.03125 264.79688 98.109375Q264.125 99.171875 262.85938 99.171875Q262.14062 99.171875 261.625 98.859375Q261.125 98.53125 260.67188 97.671875Q260.23438 96.8125 260.23438 95.859375L260.23438 94.546875Q260.23438 93.375 260.90625 92.296875Q261.57812 91.21875 262.84375 91.21875Q263.5625 91.21875 264.0625 91.546875Q264.5625 91.859375 265.01562 92.71875Q265.46875 93.578125 265.46875 94.546875ZM264.26562 94.546875Q264.26562 93.5625 263.71875 92.828125Q263.40625 92.421875 262.84375 92.421875Q262.29688 92.421875 261.95312 92.875Q261.4375 93.546875 261.4375 94.546875L261.4375 95.859375Q261.4375 96.84375 261.98438 97.5625Q262.29688 97.96875 262.85938 97.96875Q263.40625 97.96875 263.75 97.53125Q264.26562 96.859375 264.26562 95.859375L264.26562 94.546875ZM270.78125 93.171875Q270.78125 93.875 270.28125 94.375Q269.78125 94.859375 269.07812 94.859375Q268.375 94.859375 267.875 94.375Q267.375 93.875 267.375 93.171875Q267.375 92.46875 267.875 91.96875Q268.375 91.46875 269.07812 91.46875Q269.78125 91.46875 270.28125 91.96875Q270.78125 92.453125 270.78125 93.171875ZM270.03125 93.171875Q270.03125 92.765625 269.75 92.5Q269.46875 92.21875 269.07812 92.21875Q268.6875 92.21875 268.40625 92.5Q268.125 92.765625 268.125 93.171875Q268.125 93.5625 268.40625 93.84375Q268.6875 94.125 269.07812 94.125Q269.46875 94.125 269.75 93.84375Q270.03125 93.5625 270.03125 93.171875ZM272.1875 94.953125L267.76562 96.390625Q267.59375 96.4375 267.51562 96.4375Q267.39062 96.4375 267.28125 96.328125Q267.17188 96.21875 267.17188 96.046875Q267.17188 95.921875 267.26562 95.828125Q267.3125 95.75 267.53125 95.6875L271.96875 94.25Q272.125 94.1875 272.20312 94.1875Q272.34375 94.1875 272.4375 94.3125Q272.54688 94.421875 272.54688 94.578125Q272.54688 94.703125 272.46875 94.8125Q272.40625 94.890625 272.1875 94.953125ZM272.29688 97.484375Q272.29688 98.1875 271.79688 98.6875Q271.29688 99.171875 270.59375 99.171875Q269.89062 99.171875 269.39062 98.671875Q268.90625 98.171875 268.90625 97.484375Q268.90625 96.78125 269.39062 96.28125Q269.89062 95.78125 270.59375 95.78125Q271.29688 95.78125 271.79688 96.28125Q272.29688 96.765625 272.29688 97.484375ZM271.54688 97.484375Q271.54688 97.078125 271.26562 96.8125Q270.98438 96.53125 270.59375 96.53125Q270.20312 96.53125 269.92188 96.8125Q269.64062 97.078125 269.64062 97.484375Q269.64062 97.875 269.92188 98.15625Q270.20312 98.4375 270.59375 98.4375Q270.98438 98.4375 271.26562 98.15625Q271.54688 97.875 271.54688 97.484375Z" fill-rule="nonzero"/><path stroke="#757575" stroke-width="1.0" stroke-linecap="butt" d="M273.25 87.5L225.75 87.5L215.8125 87.5" fill-rule="nonzero"/><path fill="#9e9e9e" d="M217.8125 87.5C217.8125 86.39543 216.91707 85.5 215.8125 85.5C214.70793 85.5 213.8125 86.39543 213.8125 87.5C213.8125 88.60457 214.70793 89.5 215.8125 89.5C216.91707 89.5 217.8125 88.60457 217.8125 87.5" fill-rule="nonzero"/></svg>